<?xml version="1.0" standalone="no"?>
<!DOCTYPE svg PUBLIC "-//W3C//DTD SVG 20010904//EN"
 "http://www.w3.org/TR/2001/REC-SVG-20010904/DTD/svg10.dtd">
<svg version="1.0" xmlns="http://www.w3.org/2000/svg"
 width="1024.000000pt" height="1024.000000pt" viewBox="0 0 1024.000000 1024.000000"
 preserveAspectRatio="xMidYMid meet">

<g transform="translate(0.000000,1024.000000) scale(0.100000,-0.100000)"
fill="#000000" stroke="none">
<path d="M0 5120 l0 -5120 5120 0 5120 0 0 5120 0 5120 -5120 0 -5120 0 0
-5120z m5365 3360 c66 -6 170 -18 230 -26 1298 -190 2375 -1173 2690 -2454 74
-303 101 -559 92 -880 -18 -612 -186 -1149 -525 -1670 -483 -743 -1269 -1268
-2132 -1424 -197 -35 -294 -45 -505 -52 -895 -30 -1761 312 -2395 946 -302
302 -551 668 -709 1045 -77 182 -114 295 -161 490 -62 252 -81 403 -87 692 -6
262 1 367 37 598 125 790 566 1537 1203 2039 526 414 1119 644 1802 699 94 8
349 6 460 -3z"/>
<path d="M3610 6945 c0 -6 188 -263 352 -482 55 -72 112 -140 126 -150 25 -17
79 -18 928 -23 l900 -5 75 -37 c365 -181 337 -691 -46 -834 -46 -18 -96 -19
-662 -24 l-611 -5 56 -71 c32 -39 104 -132 161 -205 58 -74 143 -183 191 -244
47 -60 178 -227 290 -370 519 -661 606 -769 644 -797 81 -58 77 -58 477 -58
203 0 369 2 369 5 0 4 -259 337 -773 995 l-106 135 37 7 c213 39 252 50 338
93 571 282 761 1034 400 1578 -154 232 -409 403 -700 470 -89 21 -113 21
-1268 24 -648 2 -1178 1 -1178 -2z"/>
<path d="M4020 5370 c-76 -40 -75 -39 -268 -455 -382 -828 -499 -1087 -512
-1133 -16 -60 -5 -99 33 -123 29 -17 53 -19 282 -19 279 0 292 3 346 71 15 19
125 229 245 468 119 238 231 449 247 468 63 71 88 78 319 81 l207 3 -82 102
c-45 56 -140 176 -211 267 -72 91 -154 193 -184 228 l-54 62 -167 0 c-142 -1
-171 -4 -201 -20z"/>
</g>
</svg>
